<svg width="300" height="300" viewBox="0 0 300 300" fill="none" xmlns="http://www.w3.org/2000/svg">
<path fill-rule="evenodd" clip-rule="evenodd" d="M86.693 130.461H83.3084V112.038L78.293 116.53V112.083L84.2105 106.923H86.693V130.461ZM84.3084 109.8V129.461H85.693V107.923H84.5853L79.293 112.538V114.292L84.3084 109.8Z" fill="#B2B2B9"/>
<path fill-rule="evenodd" clip-rule="evenodd" d="M181.308 161.231H177.924V142.808L172.908 147.3V142.853L178.826 137.692H181.308V161.231ZM178.924 140.569V160.231H180.308V138.692H179.201L173.908 143.308V145.062L178.924 140.569Z" fill="#B2B2B9"/>
<path fill-rule="evenodd" clip-rule="evenodd" d="M244.384 286.616H241V268.192L235.984 272.685V268.238L241.902 263.077H244.384V286.616ZM242 265.954V285.616H243.384V264.077H242.277L236.984 268.693V270.446L242 265.954Z" fill="#B2B2B9"/>
<path fill-rule="evenodd" clip-rule="evenodd" d="M23.6148 161.231H20.2302V142.808L15.2148 147.3V142.853L21.1324 137.692H23.6148V161.231ZM21.2302 140.569V160.231H22.6148V138.692H21.5072L16.2148 143.308V145.062L21.2302 140.569Z" fill="#B2B2B9"/>
<path fill-rule="evenodd" clip-rule="evenodd" d="M23.6148 224.308H20.2302V205.885L15.2148 210.377V205.93L21.1324 200.77H23.6148V224.308ZM21.2302 203.646V223.308H22.6148V201.77H21.5072L16.2148 206.385V208.139L21.2302 203.646Z" fill="#B2B2B9"/>
<path fill-rule="evenodd" clip-rule="evenodd" d="M55.1539 192.769H51.7693V174.346L46.7539 178.838V174.391L52.6714 169.23H55.1539V192.769ZM52.7693 172.107V191.769H54.1539V170.23H53.0462L47.7539 174.846V176.6L52.7693 172.107Z" fill="#B2B2B9"/>
<path fill-rule="evenodd" clip-rule="evenodd" d="M275.923 35.8461H272.539V17.4227L267.523 21.915V17.4682L273.441 12.3076H275.923V35.8461ZM273.539 15.1845V34.8461H274.923V13.3076H273.816L268.523 17.923V19.6768L273.539 15.1845Z" fill="#B2B2B9"/>
<path fill-rule="evenodd" clip-rule="evenodd" d="M181.308 67.3842H177.924V48.9608L172.908 53.4531V49.0063L178.826 43.8457H181.308V67.3842ZM178.924 46.7226V66.3842H180.308V44.8457H179.201L173.908 49.4611V51.2149L178.924 46.7226Z" fill="#B2B2B9"/>
<path fill-rule="evenodd" clip-rule="evenodd" d="M176.761 97.6902L176.761 97.6902C175.476 96.6668 174.531 95.2233 173.888 93.4296L173.887 93.426C173.245 91.6119 172.938 89.5147 172.938 87.1541C172.938 84.7947 173.245 82.7067 173.888 80.9112C174.529 79.0989 175.473 77.6432 176.761 76.6179L176.768 76.6124L176.768 76.6124C178.088 75.5804 179.653 75.0771 181.414 75.0771C183.174 75.0771 184.732 75.5796 186.034 76.6152C187.343 77.6398 188.299 79.0961 188.941 80.9111C189.584 82.7066 189.891 84.7947 189.891 87.1541C189.891 89.5147 189.583 91.6119 188.942 93.426L188.941 93.4296C188.297 95.2262 187.34 96.6703 186.034 97.693C184.732 98.7286 183.174 99.231 181.414 99.231C179.653 99.231 178.088 98.7277 176.768 97.6957L176.761 97.6902ZM185.414 96.9079C186.543 96.0259 187.404 94.7541 187.999 93.0925C188.594 91.4105 188.891 89.431 188.891 87.1541C188.891 84.8771 188.594 82.9079 187.999 81.2464C187.404 79.5643 186.543 78.2823 185.414 77.4002C184.307 76.5182 182.973 76.0771 181.414 76.0771C179.855 76.0771 178.512 76.5182 177.384 77.4002C176.276 78.2823 175.425 79.5643 174.83 81.2464C174.235 82.9079 173.938 84.8771 173.938 87.1541C173.938 89.431 174.235 91.4105 174.83 93.0925C175.425 94.7541 176.276 96.0259 177.384 96.9079C178.512 97.79 179.855 98.231 181.414 98.231C182.973 98.231 184.307 97.79 185.414 96.9079ZM176.922 79.9541C175.855 81.6566 175.322 84.0566 175.322 87.1541C175.322 90.2515 175.855 92.6618 176.922 94.3848C177.989 96.0874 179.486 96.9387 181.414 96.9387C183.343 96.9387 184.84 96.0874 185.907 94.3848C186.973 92.6618 187.507 90.2515 187.507 87.1541C187.507 84.0566 186.973 81.6566 185.907 79.9541C184.84 78.231 183.343 77.3695 181.414 77.3695C179.486 77.3695 177.989 78.231 176.922 79.9541ZM185.058 93.8562C185.987 92.3539 186.507 90.1549 186.507 87.1541C186.507 84.1506 185.986 81.9642 185.059 80.485L185.056 80.4804L185.056 80.4804C184.161 79.0336 182.975 78.3695 181.414 78.3695C179.853 78.3695 178.668 79.0336 177.772 80.4804L177.77 80.485L177.77 80.485C176.843 81.9642 176.322 84.1506 176.322 87.1541C176.322 90.1549 176.842 92.3539 177.771 93.8562C178.664 95.2802 179.849 95.9387 181.414 95.9387C182.98 95.9387 184.165 95.2802 185.058 93.8562Z" fill="#B2B2B9"/>
<path fill-rule="evenodd" clip-rule="evenodd" d="M239.839 129.228L239.839 129.228C238.554 128.205 237.609 126.761 236.966 124.968L236.965 124.964C236.324 123.15 236.016 121.053 236.016 118.692C236.016 116.333 236.323 114.245 236.966 112.449C237.607 110.637 238.551 109.181 239.839 108.156L239.846 108.15L239.846 108.151C241.166 107.119 242.731 106.615 244.493 106.615C246.252 106.615 247.81 107.118 249.112 108.153C250.421 109.178 251.377 110.634 252.019 112.449C252.662 114.245 252.969 116.333 252.969 118.692C252.969 121.053 252.662 123.15 252.02 124.964L252.019 124.968C251.375 126.764 250.419 128.208 249.112 129.231C247.81 130.267 246.252 130.769 244.493 130.769C242.731 130.769 241.166 130.266 239.846 129.234L239.839 129.228ZM248.493 128.446C249.621 127.564 250.482 126.292 251.077 124.631C251.672 122.949 251.969 120.969 251.969 118.692C251.969 116.415 251.672 114.446 251.077 112.784C250.482 111.102 249.621 109.82 248.493 108.938C247.385 108.056 246.052 107.615 244.493 107.615C242.934 107.615 241.59 108.056 240.462 108.938C239.354 109.82 238.503 111.102 237.908 112.784C237.313 114.446 237.016 116.415 237.016 118.692C237.016 120.969 237.313 122.949 237.908 124.631C238.503 126.292 239.354 127.564 240.462 128.446C241.59 129.328 242.934 129.769 244.493 129.769C246.052 129.769 247.385 129.328 248.493 128.446ZM240 111.492C238.934 113.195 238.4 115.595 238.4 118.692C238.4 121.79 238.934 124.2 240 125.923C241.067 127.625 242.564 128.477 244.493 128.477C246.421 128.477 247.918 127.625 248.985 125.923C250.052 124.2 250.585 121.79 250.585 118.692C250.585 115.595 250.052 113.195 248.985 111.492C247.918 109.769 246.421 108.908 244.493 108.908C242.564 108.908 241.067 109.769 240 111.492ZM248.136 125.394C249.065 123.892 249.585 121.693 249.585 118.692C249.585 115.689 249.064 113.502 248.137 112.023L248.135 112.019L248.135 112.019C247.239 110.572 246.054 109.908 244.493 109.908C242.932 109.908 241.746 110.572 240.851 112.019L240.848 112.023L240.848 112.023C239.921 113.502 239.4 115.689 239.4 118.692C239.4 121.693 239.92 123.892 240.849 125.394C241.742 126.818 242.927 127.477 244.493 127.477C246.058 127.477 247.243 126.818 248.136 125.394Z" fill="#B2B2B9"/>
<path fill-rule="evenodd" clip-rule="evenodd" d="M271.378 223.075L271.378 223.075C270.093 222.052 269.148 220.608 268.506 218.814L268.504 218.811C267.863 216.997 267.555 214.899 267.555 212.539C267.555 210.179 267.862 208.091 268.505 206.296C269.146 204.484 270.09 203.028 271.378 202.003L271.385 201.997L271.385 201.997C272.705 200.965 274.27 200.462 276.032 200.462C277.791 200.462 279.349 200.964 280.651 202C281.96 203.025 282.916 204.481 283.558 206.296C284.201 208.091 284.509 210.179 284.509 212.539C284.509 214.899 284.201 216.997 283.559 218.811L283.558 218.814C282.914 220.611 281.958 222.055 280.651 223.078C279.349 224.113 277.791 224.616 276.032 224.616C274.27 224.616 272.705 224.112 271.385 223.08L271.378 223.075ZM280.032 222.293C281.16 221.411 282.021 220.139 282.616 218.477C283.211 216.795 283.509 214.816 283.509 212.539C283.509 210.262 283.211 208.293 282.616 206.631C282.021 204.949 281.16 203.667 280.032 202.785C278.924 201.903 277.591 201.462 276.032 201.462C274.473 201.462 273.129 201.903 272.001 202.785C270.893 203.667 270.042 204.949 269.447 206.631C268.852 208.293 268.555 210.262 268.555 212.539C268.555 214.816 268.852 216.795 269.447 218.477C270.042 220.139 270.893 221.411 272.001 222.293C273.129 223.175 274.473 223.616 276.032 223.616C277.591 223.616 278.924 223.175 280.032 222.293ZM271.539 205.339C270.473 207.041 269.939 209.441 269.939 212.539C269.939 215.636 270.473 218.047 271.539 219.77C272.606 221.472 274.103 222.323 276.032 222.323C277.96 222.323 279.457 221.472 280.524 219.77C281.591 218.047 282.124 215.636 282.124 212.539C282.124 209.441 281.591 207.041 280.524 205.339C279.457 203.616 277.96 202.754 276.032 202.754C274.103 202.754 272.606 203.616 271.539 205.339ZM279.675 219.241C280.604 217.739 281.124 215.54 281.124 212.539C281.124 209.535 280.603 207.349 279.676 205.87L279.674 205.865L279.674 205.865C278.778 204.418 277.593 203.754 276.032 203.754C274.471 203.754 273.285 204.418 272.39 205.865L272.387 205.87L272.387 205.87C271.46 207.349 270.939 209.535 270.939 212.539C270.939 215.54 271.459 217.739 272.388 219.241C273.281 220.665 274.466 221.323 276.032 221.323C277.597 221.323 278.782 220.665 279.675 219.241Z" fill="#B2B2B9"/>
<path fill-rule="evenodd" clip-rule="evenodd" d="M176.761 285.383L176.761 285.383C175.476 284.359 174.531 282.916 173.888 281.122L173.887 281.118C173.245 279.304 172.938 277.207 172.938 274.846C172.938 272.487 173.245 270.399 173.888 268.604C174.529 266.791 175.473 265.336 176.761 264.31L176.768 264.305L176.768 264.305C178.088 263.273 179.653 262.77 181.414 262.77C183.174 262.77 184.732 263.272 186.034 264.308C187.343 265.332 188.299 266.788 188.941 268.603C189.584 270.399 189.891 272.487 189.891 274.846C189.891 277.207 189.583 279.304 188.942 281.118L188.941 281.122C188.297 282.919 187.34 284.363 186.034 285.385C184.732 286.421 183.174 286.923 181.414 286.923C179.653 286.923 178.088 286.42 176.768 285.388L176.761 285.383ZM185.414 284.6C186.543 283.718 187.404 282.446 187.999 280.785C188.594 279.103 188.891 277.123 188.891 274.846C188.891 272.57 188.594 270.6 187.999 268.939C187.404 267.257 186.543 265.975 185.414 265.093C184.307 264.211 182.973 263.77 181.414 263.77C179.855 263.77 178.512 264.211 177.384 265.093C176.276 265.975 175.425 267.257 174.83 268.939C174.235 270.6 173.938 272.57 173.938 274.846C173.938 277.123 174.235 279.103 174.83 280.785C175.425 282.446 176.276 283.718 177.384 284.6C178.512 285.482 179.855 285.923 181.414 285.923C182.973 285.923 184.307 285.482 185.414 284.6ZM176.922 267.646C175.855 269.349 175.322 271.749 175.322 274.846C175.322 277.944 175.855 280.354 176.922 282.077C177.989 283.78 179.486 284.631 181.414 284.631C183.343 284.631 184.84 283.78 185.907 282.077C186.973 280.354 187.507 277.944 187.507 274.846C187.507 271.749 186.973 269.349 185.907 267.646C184.84 265.923 183.343 265.062 181.414 265.062C179.486 265.062 177.989 265.923 176.922 267.646ZM185.058 281.549C185.987 280.046 186.507 277.847 186.507 274.846C186.507 271.843 185.986 269.657 185.059 268.177L185.056 268.173L185.056 268.173C184.161 266.726 182.975 266.062 181.414 266.062C179.853 266.062 178.668 266.726 177.772 268.173L177.77 268.177L177.77 268.177C176.843 269.657 176.322 271.843 176.322 274.846C176.322 277.847 176.842 280.046 177.771 281.549C178.664 282.973 179.849 283.631 181.414 283.631C182.98 283.631 184.165 282.973 185.058 281.549Z" fill="#B2B2B9"/>
<path fill-rule="evenodd" clip-rule="evenodd" d="M145.224 285.383L145.224 285.383C143.938 284.359 142.993 282.916 142.351 281.122L142.35 281.118C141.708 279.304 141.4 277.207 141.4 274.846C141.4 272.487 141.708 270.399 142.351 268.604C142.992 266.791 143.936 265.336 145.224 264.31L145.231 264.305L145.231 264.305C146.551 263.273 148.116 262.77 149.877 262.77C151.637 262.77 153.195 263.272 154.497 264.308C155.806 265.332 156.762 266.788 157.404 268.603C158.047 270.399 158.354 272.487 158.354 274.846C158.354 277.207 158.046 279.304 157.405 281.118L157.403 281.122C156.76 282.919 155.803 284.363 154.497 285.385C153.195 286.421 151.637 286.923 149.877 286.923C148.116 286.923 146.551 286.42 145.231 285.388L145.224 285.383ZM153.877 284.6C155.006 283.718 155.867 282.446 156.462 280.785C157.057 279.103 157.354 277.123 157.354 274.846C157.354 272.57 157.057 270.6 156.462 268.939C155.867 267.257 155.006 265.975 153.877 265.093C152.77 264.211 151.436 263.77 149.877 263.77C148.318 263.77 146.975 264.211 145.847 265.093C144.739 265.975 143.888 267.257 143.293 268.939C142.698 270.6 142.4 272.57 142.4 274.846C142.4 277.123 142.698 279.103 143.293 280.785C143.888 282.446 144.739 283.718 145.847 284.6C146.975 285.482 148.318 285.923 149.877 285.923C151.436 285.923 152.77 285.482 153.877 284.6ZM145.385 267.646C144.318 269.349 143.785 271.749 143.785 274.846C143.785 277.944 144.318 280.354 145.385 282.077C146.452 283.78 147.949 284.631 149.877 284.631C151.806 284.631 153.303 283.78 154.37 282.077C155.436 280.354 155.97 277.944 155.97 274.846C155.97 271.749 155.436 269.349 154.37 267.646C153.303 265.923 151.806 265.062 149.877 265.062C147.949 265.062 146.452 265.923 145.385 267.646ZM153.521 281.549C154.45 280.046 154.97 277.847 154.97 274.846C154.97 271.843 154.449 269.657 153.522 268.177L153.519 268.173L153.519 268.173C152.624 266.726 151.438 266.062 149.877 266.062C148.316 266.062 147.131 266.726 146.235 268.173L146.232 268.177L146.232 268.177C145.306 269.657 144.785 271.843 144.785 274.846C144.785 277.847 145.305 280.046 146.234 281.549C147.127 282.973 148.311 283.631 149.877 283.631C151.443 283.631 152.628 282.973 153.521 281.549Z" fill="#B2B2B9"/>
</svg>
