<svg width="290" height="67" viewBox="0 0 290 67" fill="none" xmlns="http://www.w3.org/2000/svg">
  <path
     style="fill:#000000;stroke-width:0.42988652"
     id="path2"
     d="m 85.667794,27.492056 c -1.48225,0 -2.669167,0.730507 -3.376324,1.98642 v -1.340172 c 0,-0.230419 -0.188293,-0.418665 -0.418285,-0.418665 h -1.695039 c -0.230421,0 -0.418277,0.188246 -0.418277,0.418665 v 10.331034 c 0,0.230376 0.187856,0.418623 0.418277,0.418623 h 1.697625 c 0.230412,0 0.418277,-0.188247 0.418277,-0.418623 v -5.633319 c 0,-1.758838 1.094492,-2.899585 2.759013,-2.899585 1.619379,0 2.691516,1.140747 2.691516,2.899585 v 5.633319 c 0,0.230376 0.187864,0.418623 0.417854,0.418623 h 1.720404 c 0.230421,0 0.418276,-0.188247 0.418276,-0.418623 V 32.51571 c -0.0023,-3.104641 -1.781879,-5.023654 -4.633317,-5.023654 z" />
  <path
     style="fill:#000000;stroke-width:0.42988652"
     id="path4"
     d="m 98.471106,27.722476 h -2.50366 v -2.728147 c 0,-0.230376 -0.187856,-0.418623 -0.418284,-0.418623 h -1.720404 c -0.229983,0 -0.417846,0.188247 -0.417846,0.418623 v 2.728147 h -1.703641 c -0.229991,0 -0.418284,0.188247 -0.418284,0.418665 v 1.584606 c 0,0.230419 0.188293,0.418666 0.418284,0.418666 h 1.703641 v 4.54317 c 0,2.832093 1.641742,4.338072 4.105852,4.338072 0.297481,0 0.676209,-0.02248 1.010232,-0.07025 0.205049,-0.02811 0.356371,-0.205098 0.356371,-0.413035 V 37.0308 c 0,-0.244433 -0.207634,-0.435475 -0.451811,-0.415829 -0.123381,0.01122 -0.249761,0.01406 -0.370134,0.01406 -1.232481,0 -2.099561,-0.570373 -2.099561,-1.98642 v -4.50104 h 2.503659 c 0.229983,0 0.417847,-0.188248 0.417847,-0.418623 v -1.58465 c 0.0055,-0.230376 -0.182271,-0.41583 -0.412261,-0.41583 z" />
  <path
     style="fill:#000000;stroke-width:0.42988652"
     id="path6"
     d="m 105.47868,27.492056 c -3.21597,0 -5.747574,2.511828 -5.747574,5.754161 0,3.335017 2.531604,5.869326 5.792724,5.869326 2.54535,0 4.55765,-1.343008 5.1582,-3.419316 0.0705,-0.24164 -0.1092,-0.483281 -0.35896,-0.483281 H 108.524 c -0.15433,0 -0.3005,0.08989 -0.35939,0.233215 -0.33401,0.828821 -1.33866,1.365448 -2.59307,1.365448 -1.80166,0 -2.94128,-1.028288 -3.26111,-2.671959 h 8.06294 c 0.28932,0 0.5279,-0.227583 0.54166,-0.516939 0.0111,-0.202305 0.0167,-0.413035 0.0167,-0.556316 0,-3.26761 -2.44133,-5.574339 -5.45311,-5.574339 z m -3.10119,4.475764 c 0.36497,-1.371122 1.45946,-2.169035 2.96664,-2.169035 1.52954,0 2.59867,0.890638 2.82909,2.169035 z" />
  <path
     style="fill:#000000;stroke-width:0.42988652"
     id="path8"
     d="m 119.01495,27.565137 c -0.23601,-0.04218 -0.47717,-0.07308 -0.70759,-0.07308 -1.32191,0 -2.3489,0.640617 -3.01136,1.713914 v -1.067666 c 0,-0.230419 -0.18786,-0.418666 -0.41828,-0.418666 h -1.69504 c -0.22999,0 -0.41784,0.188247 -0.41784,0.418666 v 10.331033 c 0,0.230376 0.18785,0.418623 0.41784,0.418623 h 1.69806 c 0.22998,0 0.41828,-0.188247 0.41828,-0.418623 v -5.540636 c 0,-2.008859 1.32189,-3.127123 2.94127,-3.127123 0.20463,0 0.41786,0.02248 0.63151,0.05618 0.25535,0.04218 0.48835,-0.151707 0.48835,-0.410197 v -1.472234 c -0.003,-0.202303 -0.14616,-0.376493 -0.3452,-0.410197 z" />
  <path
     style="fill:#000000;stroke-width:0.42988652"
     id="path10"
     d="m 131.36602,27.697155 h -1.7204 c -0.22999,0 -0.41785,0.188248 -0.41785,0.418666 v 1.500347 c -0.79702,-1.34864 -2.16663,-2.124112 -3.94593,-2.124112 -2.96665,0 -5.33833,2.511828 -5.33833,5.638951 0,3.127123 2.37168,5.664227 5.33833,5.664227 1.7793,0 3.14891,-0.775471 3.94593,-2.146551 v 2.051031 c 0,1.713872 -1.43711,2.854575 -3.19406,2.854575 -1.45388,0 -2.68292,-0.587224 -2.94129,-1.623981 -0.0478,-0.185412 -0.21321,-0.317472 -0.40408,-0.317472 h -1.71483 c -0.25535,0 -0.4518,0.227582 -0.41268,0.480441 0.42946,2.744997 3.42404,3.582287 5.54037,3.582287 3.23876,0 5.68052,-1.941453 5.68052,-5.068577 V 28.115821 c 0.003,-0.230418 -0.18528,-0.418666 -0.4157,-0.418666 z m -5.53436,8.723945 c -1.8945,0 -3.37633,-1.438529 -3.37633,-3.287299 0,-1.826244 1.48183,-3.287257 3.37633,-3.287257 1.93922,0 3.39868,1.416048 3.39868,3.287257 0,1.893694 -1.46204,3.287299 -3.39868,3.287299 z" />
  <path
     style="fill:#000000;stroke-width:0.42988652"
     id="path12"
     d="m 145.29779,27.565137 c -0.23558,-0.04218 -0.47718,-0.07308 -0.70717,-0.07308 -1.32191,0 -2.34933,0.640617 -3.01135,1.713914 v -1.067666 c 0,-0.230419 -0.1883,-0.418666 -0.41829,-0.418666 h -1.69804 c -0.22999,0 -0.41828,0.188247 -0.41828,0.418666 v 10.331033 c 0,0.230376 0.18829,0.418623 0.41828,0.418623 h 1.69804 c 0.22999,0 0.41829,-0.188247 0.41829,-0.418623 v -5.540636 c 0,-2.008859 1.32189,-3.127123 2.94128,-3.127123 0.20462,0 0.41785,0.02248 0.63149,0.05618 0.25537,0.04218 0.48793,-0.151707 0.48793,-0.410197 v -1.472234 c 0,-0.202303 -0.14315,-0.376493 -0.34218,-0.410197 z" />
  <path
     style="fill:#000000;stroke-width:0.42988652"
     id="path14"
     d="m 151.83163,27.492056 c -3.26155,0 -5.77037,2.511828 -5.77037,5.821567 0,3.309782 2.50882,5.799083 5.77037,5.799083 3.26112,0 5.79229,-2.489301 5.79229,-5.799083 0,-3.309739 -2.53117,-5.821567 -5.79229,-5.821567 z m 0,9.181904 c -1.84679,0 -3.26155,-1.461014 -3.26155,-3.3575 0,-1.919014 1.41476,-3.380026 3.26155,-3.380026 1.84636,0 3.28347,1.461012 3.28347,3.380026 0,1.893694 -1.43711,3.3575 -3.28347,3.3575 z" />
  <path
     style="fill:#000000;stroke-width:0.42988652"
     id="path16"
     d="m 136.31144,27.722432 h -1.69806 c -0.22999,0 -0.41828,0.188248 -0.41828,0.418668 v 10.330989 c 0,0.230419 0.18829,0.418667 0.41828,0.418667 h 1.69806 c 0.22998,0 0.41784,-0.188248 0.41784,-0.418667 V 28.138263 c -0.003,-0.230378 -0.18786,-0.415831 -0.41784,-0.415831 z" />
  <path
     style="fill:#000000;stroke-width:0.42988652"
     id="path18"
     d="m 76.588585,27.722432 h -0.02234 -1.510105 -1.944942 c -0.230116,0 -0.41819,0.188248 -0.41819,0.418668 v 1.699814 c 0,0.230376 0.188074,0.418624 0.41819,0.418624 h 1.52954 v 8.215388 c 0,0.230376 0.188075,0.418623 0.418199,0.418623 h 1.69775 c 0.23042,0 0.418277,-0.188247 0.418277,-0.418623 v -10.1709 c -0.0023,-0.323103 -0.263518,-0.581594 -0.586371,-0.581594 z" />
  <path
     style="fill:#000000;stroke-width:0.42988652"
     id="path20"
     d="m 135.48347,23.033205 c -0.63149,0 -0.98228,4e-6 -1.21271,0.230393 -0.22998,0.230385 -0.22998,0.581603 -0.22998,1.213751 0,0.63219 0,0.983365 0.22998,1.213783 0.23043,0.230377 0.58122,0.230377 1.21271,0.230377 0.63151,0 0.98229,0 1.21228,-0.230377 0.22999,-0.230418 0.22999,-0.581593 0.22999,-1.213783 0,-0.632148 0,-0.983366 -0.22999,-1.213751 -0.22741,-0.230389 -0.5782,-0.230393 -1.21228,-0.230393 z" />
  <path
     style="fill:#000000;stroke-width:0.42988652"
     id="path22"
     d="m 75.906488,23.033205 c -0.631457,0 -0.98229,4e-6 -1.212406,0.230393 -0.230116,0.230385 -0.230116,0.581603 -0.230116,1.213751 0,0.63219 0,0.983365 0.230116,1.213783 0.230116,0.230377 0.580949,0.230377 1.212406,0.230377 0.631378,0 0.982164,0 1.212585,-0.230377 0.229991,-0.230418 0.229991,-0.581593 0.229991,-1.213783 0,-0.632148 0,-0.983366 -0.229991,-1.213751 -0.230421,-0.230389 -0.581207,-0.230393 -1.212585,-0.230393 z" />
  <path
     style="fill:#000000;stroke-width:0.42988652"
     id="path24"
     d="m 59.421032,21.288381 c -2.278915,-2.281424 -5.764607,-2.281425 -12.03721,-2.281425 -6.272559,0 -9.758295,1e-6 -12.037179,2.281425 -2.278901,2.281434 -2.278901,5.770994 -2.278901,12.050519 0,6.279525 0,9.769085 2.278901,12.050536 2.278884,2.281408 5.76462,2.281408 12.037179,2.281408 6.272603,0 9.758295,0 12.03721,-2.281408 2.278915,-2.281451 2.278915,-5.771011 2.278915,-12.050536 -0.0031,-6.279525 -0.0031,-9.769085 -2.278915,-12.050519 z" />
  <path
     style="fill:#ffffff;stroke-width:0.42988652"
     id="path26"
     d="m 38.094233,28.129836 c 0.33961,-0.339955 0.861621,-0.339955 1.798988,-0.339955 0.937368,0 1.45938,0 1.79899,0.339955 0.339567,0.339954 0.339567,0.862568 0.339567,1.800966 0,0.938443 0,1.461014 -0.339567,1.80101 -0.33961,0.339954 -0.861622,0.339954 -1.79899,0.339954 -0.937367,0 -1.459378,0 -1.798988,-0.339954 -0.339611,-0.339996 -0.339611,-0.862567 -0.339611,-1.80101 0,-0.938398 0,-1.461012 0.339611,-1.800966 z" />
  <path
     style="fill:#ffffff;stroke-width:0.42988652"
     id="path28"
     d="m 49.873209,38.547921 c -0.339567,0.339998 -0.861579,0.339998 -1.798988,0.339998 h -8.181 c -0.937367,0 -1.459378,0 -1.798988,-0.339998 -0.339611,-0.339954 -0.339611,-0.862525 -0.339611,-1.800967 0,-0.938399 0,-1.461012 0.339611,-1.800966 0.33961,-0.339954 0.861621,-0.339954 1.798988,-0.339954 h 8.181 c 0.937409,0 1.459421,0 1.798988,0.339954 0.33961,0.339954 0.33961,0.862567 0.33961,1.800966 0.0028,0.938442 0.0028,1.461013 -0.33961,1.800967 z" />
  <path
     style="fill:#ffffff;stroke-width:0.42988652"
     id="path30"
     d="m 56.687469,38.547921 c -0.33961,0.339998 -0.86162,0.339998 -1.798988,0.339998 -0.937369,0 -1.459379,0 -1.79899,-0.339998 -0.339567,-0.339954 -0.33961,-0.862525 -0.33961,-1.800967 0,-0.938399 4.3e-5,-1.461012 0.33961,-1.800966 0.339611,-0.339954 0.861621,-0.339954 1.79899,-0.339954 0.937368,0 1.459378,0 1.798988,0.339954 0.339568,0.339954 0.339568,0.862567 0.339568,1.800966 0.0029,0.938442 0.0029,1.461013 -0.339568,1.800967 z" />
  <path
     style="fill:#ffffff;stroke-width:0.42988652"
     id="path32"
     d="m 56.687469,31.731812 c -0.339567,0.339954 -0.861579,0.339954 -1.798946,0.339954 h -8.181042 c -0.937367,0 -1.459378,0 -1.798988,-0.339954 -0.339567,-0.339996 -0.339567,-0.862567 -0.339567,-1.80101 0,-0.938398 0,-1.461012 0.339567,-1.800966 0.33961,-0.339955 0.861621,-0.339955 1.798988,-0.339955 h 8.181042 c 0.937367,0 1.459379,0 1.798946,0.339955 0.339611,0.339954 0.339611,0.862568 0.339611,1.800966 0.0028,0.938443 0.0028,1.458218 -0.339611,1.80101 z" />
</svg>
