<svg width="36" height="36" viewBox="0 0 36 36" fill="none" xmlns="http://www.w3.org/2000/svg">
<path d="M33.1347 2.86532C30.2694 5.3844e-07 25.8867 0 18 0C10.1133 0 5.73064 5.3844e-07 2.86532 2.86532C5.3844e-07 5.73064 0 10.1133 0 18C0 25.8867 5.3844e-07 30.2694 2.86532 33.1347C5.73064 36 10.1133 36 18 36C25.8867 36 30.2694 36 33.1347 33.1347C36 30.2694 36 25.8867 36 18C35.9965 10.1133 35.9965 5.73064 33.1347 2.86532Z" fill="black"/>
<path d="M6.31955 11.4582C6.74653 11.0312 7.40287 11.0312 8.58146 11.0312C9.76005 11.0312 10.4164 11.0312 10.8434 11.4582C11.2703 11.8852 11.2703 12.5415 11.2703 13.7201C11.2703 14.8987 11.2703 15.5551 10.8434 15.982C10.4164 16.409 9.76005 16.409 8.58146 16.409C7.40287 16.409 6.74653 16.409 6.31955 15.982C5.89258 15.5551 5.89258 14.8987 5.89258 13.7201C5.89258 12.5415 5.89258 11.8852 6.31955 11.4582Z" fill="white"/>
<path d="M21.1296 24.5426C20.7026 24.9696 20.0463 24.9696 18.8677 24.9696H8.58146C7.40287 24.9696 6.74653 24.9696 6.31955 24.5426C5.89258 24.1156 5.89258 23.4593 5.89258 22.2807C5.89258 21.1021 5.89258 20.4457 6.31955 20.0188C6.74653 19.5918 7.40287 19.5918 8.58146 19.5918H18.8677C20.0463 19.5918 20.7026 19.5918 21.1296 20.0188C21.5565 20.4457 21.5565 21.1021 21.5565 22.2807C21.5601 23.4593 21.5601 24.1156 21.1296 24.5426Z" fill="white"/>
<path d="M29.6979 24.5426C29.2709 24.9696 28.6146 24.9696 27.436 24.9696C26.2574 24.9696 25.601 24.9696 25.174 24.5426C24.7471 24.1156 24.7471 23.4593 24.7471 22.2807C24.7471 21.1021 24.7471 20.4457 25.174 20.0188C25.601 19.5918 26.2574 19.5918 27.436 19.5918C28.6146 19.5918 29.2709 19.5918 29.6979 20.0188C30.1248 20.4457 30.1248 21.1021 30.1248 22.2807C30.1284 23.4593 30.1284 24.1156 29.6979 24.5426Z" fill="white"/>
<path d="M29.6979 15.982C29.271 16.409 28.6146 16.409 27.436 16.409H17.1498C15.9712 16.409 15.3149 16.409 14.8879 15.982C14.4609 15.5551 14.4609 14.8987 14.4609 13.7201C14.4609 12.5415 14.4609 11.8852 14.8879 11.4582C15.3149 11.0312 15.9712 11.0312 17.1498 11.0312H27.436C28.6146 11.0312 29.271 11.0312 29.6979 11.4582C30.1249 11.8852 30.1249 12.5415 30.1249 13.7201C30.1284 14.8987 30.1284 15.5515 29.6979 15.982Z" fill="white"/>
</svg>
