<?xml version="1.0" encoding="UTF-8" standalone="no"?>
<svg
   xmlns:svg="http://www.w3.org/2000/svg"
   xmlns="http://www.w3.org/2000/svg"
   height="59.522671"
   width="172.69734"
   id="svg34"
   version="1.1">
  <path
     id="path2"
     d="M 44.3985,15.20699 C 41.6343,12.45 37.4077,12.45 29.8063,12.45 c -7.60141,0 -11.828,0 -14.59215,2.75699 C 12.450001,17.96397 12.45,22.1796 12.45,29.76127 c 0,7.5818 1e-6,11.7974 2.76415,14.5544 2.76415,2.757 6.99074,2.757 14.59215,2.757 7.6014,0 11.828,0 14.5922,-2.757 2.7641,-2.757 2.7641,-6.9726 2.7641,-14.5544 0,-7.58167 0,-11.7973 -2.7641,-14.55428 z"
     style="fill:#4059a7" />
  <path
     style="fill:#ffffff"
     d="m 41.0716,27.82167 c -0.4178,0.4168 -1.0446,0.4168 -2.1856,0.4168 h -9.9156 c -1.141,0 -1.7677,0 -2.1856,-0.4168 -0.4178,-0.4168 -0.4178,-1.0419 -0.4178,-2.1799 0,-1.1381 0,-1.7632 0.4178,-2.18 0.4179,-0.4167 1.0446,-0.4167 2.1856,-0.4167 h 9.9156 c 1.141,0 1.7678,0 2.1856,0.4167 0.4179,0.4168 0.4179,1.0419 0.4179,2.18 0,1.138 0,1.7631 -0.4179,2.1799 z m 1e-4,8.2233 c -0.4178,0.4167 -1.0446,0.4167 -2.1856,0.4167 -1.141,0 -1.7678,0 -2.1856,-0.4167 -0.4179,-0.4168 -0.4179,-1.0419 -0.4179,-2.18 0,-1.138 0,-1.7632 0.4179,-2.1799 0.4178,-0.4168 1.0446,-0.4168 2.1856,-0.4168 1.141,0 1.7678,0 2.1856,0.4168 0.4178,0.4167 0.4178,1.0419 0.4178,2.1799 0,1.1381 0,1.7792 -0.4178,2.18 z m -8.26,0 c -0.4178,0.4167 -1.0446,0.4167 -2.1856,0.4167 h -9.91561 c -1.14102,0 -1.76777,0 -2.18561,-0.4167 -0.41784,-0.4168 -0.41784,-1.0419 -0.41784,-2.18 0,-1.138 0,-1.7632 0.41784,-2.1799 0.41784,-0.4168 1.04459,-0.4168 2.18561,-0.4168 h 9.91561 c 1.141,0 1.7678,0 2.1856,0.4168 0.4178,0.4167 0.4178,1.0419 0.4178,2.1799 0,1.1381 0,1.7792 -0.4178,2.18 z M 18.54093,23.46177 c 0.41784,-0.4167 1.0446,-0.4167 2.18561,-0.4167 1.14102,0 1.76776,0 2.18566,0.4167 0.4178,0.4168 0.4178,1.0419 0.4178,2.18 0,1.138 0,1.7631 -0.4178,2.1799 -0.4179,0.4168 -1.04464,0.4168 -2.18566,0.4168 -1.14101,0 -1.76777,0 -2.18561,-0.4168 -0.41783,-0.4168 -0.41783,-1.0419 -0.41783,-2.1799 0,-1.1381 0,-1.7632 0.41783,-2.18 z"
     id="path10" />
  <path
     style=""
     d="m 63.434326,19.204114 c -0.753888,0 -1.162238,-1e-6 -1.429237,0.266311 -0.266999,0.266311 -0.266999,0.689274 -0.266999,1.425546 0,0.751945 0,1.15924 0.266999,1.425557 0.266999,0.266308 0.691055,0.266308 1.429237,0.266308 0.753887,0 1.162246,0 1.429245,-0.266308 0.266999,-0.266317 0.267007,-0.689277 0.267007,-1.425557 0,-0.751938 -8e-6,-1.159235 -0.267007,-1.425546 -0.266999,-0.266312 -0.691063,-0.266311 -1.429245,-0.266311 z m 70.582864,0 c -0.75392,0 -1.16229,-1e-6 -1.42929,0.266311 -0.26698,0.266311 -0.26698,0.689274 -0.26698,1.425546 0,0.751945 0,1.15924 0.26698,1.425557 0.267,0.266308 0.69105,0.266308 1.42929,0.266308 0.75385,0 1.16222,0 1.4292,-0.266308 0.267,-0.266317 0.267,-0.689277 0.267,-1.425557 0,-0.751938 0,-1.159235 -0.267,-1.425546 -0.2513,-0.266312 -0.67535,-0.266311 -1.4292,-0.266311 z m -69.781656,5.545737 h -0.03141 -1.790504 -2.308794 c -0.267003,0 -0.48689,0.219313 -0.48689,0.485621 v 2.005169 c 0,0.266348 0.219887,0.485645 0.48689,0.485645 h 1.806199 v 9.696817 c 0,0.266341 0.21989,0.485638 0.486889,0.485638 h 2.010385 c 0.266999,0 0.486888,-0.219297 0.486888,-0.485638 V 25.423462 c 0.03141,-0.375972 -0.267007,-0.673611 -0.65966,-0.673611 z m 70.771456,0 h -2.01031 c -0.26707,0 -0.48694,0.219313 -0.48694,0.485621 v 12.187631 c 0,0.266341 0.21987,0.485638 0.48694,0.485638 h 2.01031 c 0.26699,0 0.48694,-0.219297 0.48694,-0.485638 V 25.235472 c 0,-0.266308 -0.21995,-0.485621 -0.48694,-0.485621 z m 18.37622,-0.282274 c -3.86349,0 -6.83159,2.960762 -6.83159,6.877059 0,3.900698 2.9681,6.845802 6.83159,6.845802 3.86429,0 6.86408,-2.945104 6.86408,-6.845802 0.0155,-3.900616 -2.98435,-6.877059 -6.86408,-6.877059 z m 0,10.840401 c -2.18322,0 -3.86349,-1.723171 -3.86349,-3.963342 0,-2.271453 1.68027,-3.994623 3.86349,-3.994623 2.1832,0 3.89517,1.72317 3.89517,3.994623 0,2.240171 -1.69571,3.963342 -3.89517,3.963342 z m -7.72697,-10.746207 c -0.28275,-0.047 -0.56552,-0.07832 -0.83282,-0.07832 -1.57059,0 -2.77961,0.751937 -3.5653,2.020826 v -1.253224 c 0,-0.266315 -0.21938,-0.485628 -0.48654,-0.485628 h -2.01038 c -0.267,0 -0.48694,0.219313 -0.48694,0.485628 v 12.187656 c 0,0.26626 0.21994,0.485637 0.48694,0.485637 h 2.01038 c 0.26716,0 0.48654,-0.219377 0.48654,-0.485637 V 30.89061 c 0,-2.365541 1.57058,-3.697058 3.48729,-3.697058 0.25107,0 0.50213,0.03133 0.75401,0.06266 0.29819,0.04699 0.58094,-0.172317 0.58094,-0.485629 V 25.03174 c -0.0316,-0.219321 -0.1885,-0.438634 -0.42412,-0.469964 z m -16.50712,0.156449 h -2.04175 c -0.267,0 -0.48694,0.219313 -0.48694,0.485629 v 1.770183 c -0.94235,-1.597866 -2.56006,-2.506455 -4.68038,-2.506455 -3.51818,0 -6.32954,2.960762 -6.32954,6.657762 0,3.697002 2.81136,6.68915 6.32954,6.68915 2.10464,0 3.72235,-0.924311 4.68038,-2.537793 v 2.428105 c 0,2.020793 -1.6962,3.368016 -3.78516,3.368016 -1.72764,0 -3.1726,-0.689253 -3.48673,-1.911105 -0.0628,-0.219378 -0.2513,-0.376029 -0.47117,-0.376029 h -2.02607 c -0.29844,0 -0.53407,0.266341 -0.48694,0.563962 0.50262,3.242727 4.05223,4.229683 6.56516,4.229683 3.83229,0 6.72222,-2.287134 6.72222,-5.984216 V 25.203849 c -0.0158,-0.266316 -0.23563,-0.485629 -0.50262,-0.485629 z m -6.56516,10.292135 c -2.24594,0 -4.00502,-1.691889 -4.00502,-3.885016 0,-2.161844 1.75908,-3.884999 4.00502,-3.884999 2.29314,0 4.02079,1.676191 4.02079,3.884999 0.0157,2.240172 -1.72765,3.885016 -4.02079,3.885016 z m -8.07318,-10.448584 c -0.28267,-0.047 -0.56543,-0.07832 -0.83241,-0.07832 -1.57058,0 -2.77993,0.751937 -3.56522,2.020826 v -1.253224 c 0,-0.266315 -0.21994,-0.485628 -0.48693,-0.485628 h -2.02608 c -0.26699,0 -0.48685,0.219313 -0.48685,0.485628 v 12.187656 c 0,0.26626 0.21986,0.485637 0.48685,0.485637 h 2.01039 c 0.267,0 0.48686,-0.219377 0.48686,-0.485637 V 30.89061 c 0,-2.365541 1.57058,-3.697058 3.48672,-3.697058 0.25131,0 0.50262,0.03133 0.75393,0.06266 0.29843,0.04699 0.58111,-0.172317 0.58111,-0.485629 V 25.03174 c 0,-0.219321 -0.17274,-0.438634 -0.40837,-0.469964 z m -16.035447,-0.0942 c -3.816521,0 -6.816389,2.960762 -6.816389,6.798733 0,3.93206 2.999868,6.924128 6.863515,6.924128 3.015551,0 5.402861,-1.5822 6.109661,-4.041668 0.0785,-0.281941 -0.12561,-0.563963 -0.42404,-0.563963 h -2.13601 c -0.1885,0 -0.36124,0.109689 -0.42413,0.282022 -0.3926,0.971194 -1.58626,1.613482 -3.078356,1.613482 -2.136007,0 -3.486723,-1.206252 -3.863647,-3.148719 h 9.549263 c 0.34548,0 0.62823,-0.266341 0.64392,-0.610927 0.0157,-0.234977 0.0157,-0.485636 0.0157,-0.65797 0.0158,-3.869351 -2.87417,-6.595118 -6.439467,-6.595118 z m -3.675226,5.294858 c 0.439812,-1.613482 1.727722,-2.553426 3.518168,-2.553426 1.806205,0 3.078435,1.049552 3.345425,2.553426 z M 90.16612,24.749906 h -2.968423 v -3.22706 c 0,-0.266308 -0.219866,-0.485628 -0.486857,-0.485628 h -2.041837 c -0.266991,0 -0.486856,0.21932 -0.486856,0.485628 v 3.227061 h -2.026075 c -0.26699,0 -0.486937,0.219321 -0.486937,0.48563 v 1.864182 c 0,0.2663 0.219947,0.485596 0.486937,0.485596 h 2.026075 v 5.357609 c 0,3.336735 1.947586,5.12255 4.868884,5.12255 0.34556,0 0.800973,-0.03136 1.193659,-0.07832 0.251309,-0.03136 0.424048,-0.250659 0.424048,-0.485637 V 35.7157 c 0,-0.282022 -0.251309,-0.517 -0.533981,-0.485637 -0.141377,0.01568 -0.298435,0.01568 -0.439812,0.01568 -1.460648,0 -2.481567,-0.673652 -2.481567,-2.34986 v -5.310565 h 2.952742 c 0.267071,0 0.486936,-0.219296 0.486936,-0.485596 V 25.23554 c 0.01568,-0.266309 -0.204183,-0.48563 -0.486936,-0.48563 z M 74.993717,24.467577 c -1.759084,0 -3.156926,0.861594 -4.005105,2.349803 v -1.5822 c 0,-0.266317 -0.219865,-0.48563 -0.486856,-0.48563 h -2.010393 c -0.266991,0 -0.486856,0.219313 -0.486856,0.48563 v 12.20328 c 0,0.266341 0.219865,0.485637 0.486856,0.485637 h 2.010393 c 0.266991,0 0.486856,-0.219296 0.486856,-0.485637 v -6.657787 c 0,-2.067756 1.303672,-3.43066 3.26694,-3.43066 1.916142,0 3.188288,1.347222 3.188288,3.43066 v 6.657787 c 0,0.266341 0.219866,0.485637 0.486938,0.485637 h 2.041755 c 0.266992,0 0.486857,-0.219296 0.486857,-0.485637 v -7.033735 c 0.03145,-3.665679 -2.088882,-5.937148 -5.465673,-5.937148 z"
     id="path32" />
</svg>
