<svg width="290" height="67" viewBox="0 0 290 67" fill="none" xmlns="http://www.w3.org/2000/svg">
<path d="M122.358 19.738C118.91 19.738 116.149 21.4373 114.504 24.3588V21.2413C114.504 20.7053 114.066 20.2674 113.531 20.2674H109.588C109.052 20.2674 108.615 20.7053 108.615 21.2413V45.2733C108.615 45.8092 109.052 46.2471 109.588 46.2471H113.537C114.073 46.2471 114.51 45.8092 114.51 45.2733V32.1691C114.51 28.0777 117.056 25.4241 120.928 25.4241C124.695 25.4241 127.189 28.0777 127.189 32.1691V45.2733C127.189 45.8092 127.626 46.2471 128.161 46.2471H132.163C132.699 46.2471 133.136 45.8092 133.136 45.2733V31.424C133.13 24.202 128.991 19.738 122.358 19.738Z" fill="black"/>
<path d="M152.141 20.274H146.317V13.9278C146.317 13.3919 145.88 12.954 145.344 12.954H141.342C140.807 12.954 140.37 13.3919 140.37 13.9278V20.274H136.407C135.872 20.274 135.434 20.7119 135.434 21.2479V24.934C135.434 25.47 135.872 25.9079 136.407 25.9079H140.37V36.4762C140.37 43.0642 144.189 46.5674 149.921 46.5674C150.613 46.5674 151.494 46.5151 152.271 46.404C152.748 46.3386 153.1 45.9269 153.1 45.4432V41.927C153.1 41.3584 152.617 40.914 152.049 40.9597C151.762 40.9858 151.468 40.9924 151.188 40.9924C148.321 40.9924 146.304 39.6656 146.304 36.3716V25.9013H152.128C152.663 25.9013 153.1 25.4634 153.1 24.9275V21.2413C153.113 20.7054 152.676 20.274 152.141 20.274Z" fill="black"/>
<path d="M168.442 19.738C160.961 19.738 155.072 25.581 155.072 33.1233C155.072 40.8812 160.961 46.7765 168.547 46.7765C174.468 46.7765 179.149 43.6524 180.546 38.8225C180.71 38.2604 180.292 37.6983 179.711 37.6983H175.526C175.167 37.6983 174.827 37.9074 174.69 38.2408C173.913 40.1688 171.576 41.4171 168.658 41.4171C164.467 41.4171 161.816 39.0251 161.072 35.2016H179.828C180.501 35.2016 181.056 34.6722 181.088 33.9991C181.114 33.5285 181.127 33.0383 181.127 32.705C181.127 25.1039 175.448 19.738 168.442 19.738ZM161.228 30.1495C162.077 26.96 164.623 25.1039 168.129 25.1039C171.687 25.1039 174.174 27.1757 174.71 30.1495H161.228Z" fill="black"/>
<path d="M199.93 19.908C199.381 19.8099 198.82 19.738 198.284 19.738C195.209 19.738 192.82 21.2282 191.279 23.7249V21.2413C191.279 20.7053 190.842 20.2674 190.306 20.2674H186.363C185.828 20.2674 185.391 20.7053 185.391 21.2413V45.2733C185.391 45.8092 185.828 46.2471 186.363 46.2471H190.313C190.848 46.2471 191.286 45.8092 191.286 45.2733V32.3847C191.286 27.7117 194.361 25.1104 198.128 25.1104C198.604 25.1104 199.1 25.1627 199.597 25.2411C200.191 25.3392 200.733 24.8882 200.733 24.2869V20.8622C200.726 20.3916 200.393 19.9864 199.93 19.908Z" fill="black"/>
<path d="M228.661 20.2151H224.659C224.124 20.2151 223.687 20.653 223.687 21.189V24.6791C221.833 21.5419 218.647 19.738 214.508 19.738C207.607 19.738 202.09 25.581 202.09 32.8553C202.09 40.1296 207.607 46.0314 214.508 46.0314C218.647 46.0314 221.833 44.2275 223.687 41.0381V45.8092C223.687 49.796 220.344 52.4495 216.257 52.4495C212.875 52.4495 210.016 51.0835 209.415 48.6718C209.304 48.2405 208.919 47.9333 208.475 47.9333H204.486C203.892 47.9333 203.435 48.4627 203.526 49.0509C204.525 55.4363 211.491 57.384 216.414 57.384C223.948 57.384 229.628 52.8678 229.628 45.5935V21.189C229.634 20.653 229.197 20.2151 228.661 20.2151ZM215.787 40.5087C211.38 40.5087 207.933 37.1624 207.933 32.8618C207.933 28.6136 211.38 25.215 215.787 25.215C220.298 25.215 223.693 28.509 223.693 32.8618C223.693 37.2669 220.292 40.5087 215.787 40.5087Z" fill="black"/>
<path d="M261.069 19.908C260.521 19.8099 259.959 19.738 259.424 19.738C256.349 19.738 253.959 21.2282 252.419 23.7249V21.2413C252.419 20.7053 251.981 20.2674 251.446 20.2674H247.496C246.961 20.2674 246.523 20.7053 246.523 21.2413V45.2733C246.523 45.8092 246.961 46.2471 247.496 46.2471H251.446C251.981 46.2471 252.419 45.8092 252.419 45.2733V32.3847C252.419 27.7117 255.494 25.1104 259.261 25.1104C259.737 25.1104 260.233 25.1627 260.73 25.2411C261.324 25.3392 261.865 24.8882 261.865 24.2869V20.8622C261.865 20.3916 261.532 19.9864 261.069 19.908Z" fill="black"/>
<path d="M276.268 19.738C268.681 19.738 262.845 25.581 262.845 33.2801C262.845 40.9793 268.681 46.7699 276.268 46.7699C283.854 46.7699 289.742 40.9793 289.742 33.2801C289.742 25.581 283.854 19.738 276.268 19.738ZM276.268 41.0969C271.972 41.0969 268.681 37.6983 268.681 33.2867C268.681 28.8227 271.972 25.4241 276.268 25.4241C280.563 25.4241 283.906 28.8227 283.906 33.2867C283.906 37.6918 280.563 41.0969 276.268 41.0969Z" fill="black"/>
<path d="M240.165 20.2739H236.215C235.68 20.2739 235.242 20.7118 235.242 21.2478V45.2797C235.242 45.8157 235.68 46.2536 236.215 46.2536H240.165C240.7 46.2536 241.137 45.8157 241.137 45.2797V21.2412C241.131 20.7053 240.7 20.2739 240.165 20.2739Z" fill="black"/>
<path d="M101.238 20.2739H101.186H97.6732H93.1489C92.6136 20.2739 92.1761 20.7118 92.1761 21.2478V25.2019C92.1761 25.7378 92.6136 26.1757 93.1489 26.1757H96.7069V45.2863C96.7069 45.8222 97.1444 46.2601 97.6797 46.2601H101.629C102.165 46.2601 102.602 45.8222 102.602 45.2863V21.6268C102.596 20.8752 101.989 20.2739 101.238 20.2739Z" fill="black"/>
<path d="M238.239 9.36584C236.77 9.36584 235.954 9.36585 235.418 9.90178C234.883 10.4377 234.883 11.2547 234.883 12.7252C234.883 14.1958 234.883 15.0127 235.418 15.5487C235.954 16.0846 236.77 16.0846 238.239 16.0846C239.708 16.0846 240.524 16.0846 241.059 15.5487C241.594 15.0127 241.594 14.1958 241.594 12.7252C241.594 11.2547 241.594 10.4377 241.059 9.90178C240.53 9.36585 239.714 9.36584 238.239 9.36584Z" fill="black"/>
<path d="M99.6513 9.36584C98.1824 9.36584 97.3663 9.36585 96.831 9.90178C96.2957 10.4377 96.2957 11.2547 96.2957 12.7252C96.2957 14.1958 96.2957 15.0127 96.831 15.5487C97.3663 16.0846 98.1824 16.0846 99.6513 16.0846C101.12 16.0846 101.936 16.0846 102.472 15.5487C103.007 15.0127 103.007 14.1958 103.007 12.7252C103.007 11.2547 103.007 10.4377 102.472 9.90178C101.936 9.36585 101.12 9.36584 99.6513 9.36584Z" fill="black"/>
<path d="M61.3029 5.30704C56.0017 9.97278e-07 47.8933 0 33.302 0C18.7108 0 10.6023 9.97278e-07 5.30117 5.30704C9.96175e-07 10.6141 0 18.7315 0 33.3389C0 47.9463 9.96175e-07 56.0637 5.30117 61.3708C10.6023 66.6778 18.7108 66.6778 33.302 66.6778C47.8933 66.6778 56.0017 66.6778 61.3029 61.3708C66.6041 56.0637 66.6041 47.9463 66.6041 33.3389C66.5975 18.7315 66.5975 10.6141 61.3029 5.30704Z" fill="black"/>
<path d="M11.6926 21.2216C12.4826 20.4308 13.6969 20.4308 15.8774 20.4308C18.0579 20.4308 19.2722 20.4308 20.0622 21.2216C20.8521 22.0124 20.8521 23.2281 20.8521 25.411C20.8521 27.594 20.8521 28.8096 20.0622 29.6005C19.2722 30.3913 18.0579 30.3913 15.8774 30.3913C13.6969 30.3913 12.4826 30.3913 11.6926 29.6005C10.9026 28.8096 10.9026 27.594 10.9026 25.411C10.9026 23.2281 10.9026 22.0124 11.6926 21.2216Z" fill="white"/>
<path d="M39.0928 45.4561C38.3029 46.247 37.0886 46.247 34.908 46.247H15.8774C13.6969 46.247 12.4826 46.247 11.6926 45.4561C10.9026 44.6653 10.9026 43.4497 10.9026 41.2667C10.9026 39.0838 10.9026 37.8681 11.6926 37.0773C12.4826 36.2865 13.6969 36.2865 15.8774 36.2865H34.908C37.0886 36.2865 38.3029 36.2865 39.0928 37.0773C39.8828 37.8681 39.8828 39.0838 39.8828 41.2667C39.8893 43.4497 39.8893 44.6653 39.0928 45.4561Z" fill="white"/>
<path d="M54.9441 45.4561C54.1541 46.247 52.9398 46.247 50.7593 46.247C48.5788 46.247 47.3645 46.247 46.5745 45.4561C45.7846 44.6653 45.7845 43.4497 45.7845 41.2667C45.7845 39.0838 45.7846 37.8681 46.5745 37.0773C47.3645 36.2865 48.5788 36.2865 50.7593 36.2865C52.9398 36.2865 54.1541 36.2865 54.9441 37.0773C55.734 37.8681 55.734 39.0838 55.734 41.2667C55.7406 43.4497 55.7406 44.6653 54.9441 45.4561Z" fill="white"/>
<path d="M54.9441 29.6005C54.1542 30.3913 52.9399 30.3913 50.7594 30.3913H31.7287C29.5482 30.3913 28.3339 30.3913 27.5439 29.6005C26.754 28.8096 26.754 27.594 26.754 25.411C26.754 23.2281 26.754 22.0124 27.5439 21.2216C28.3339 20.4308 29.5482 20.4308 31.7287 20.4308H50.7594C52.9399 20.4308 54.1542 20.4308 54.9441 21.2216C55.7341 22.0124 55.7341 23.2281 55.7341 25.411C55.7406 27.594 55.7406 28.8031 54.9441 29.6005Z" fill="white"/>
</svg>