<svg width="463" height="346" viewBox="0 0 463 346" fill="none" xmlns="http://www.w3.org/2000/svg">
<g clip-path="url(#clip0_155_35029)">
<path d="M391.18 88.448C405.613 89.9529 414.483 81.3697 414.483 81.3697C431.713 63.2816 440.26 67.782 440.26 67.782C440.404 67.7964 437.967 89.8449 437.967 89.8449C437.967 89.8449 428.32 88.0951 412.19 103.433C412.19 103.433 403.32 112.016 388.887 110.511C388.887 110.518 390.964 88.6064 391.18 88.448Z" fill="#F3F4F5" stroke="black" stroke-width="1.35517" stroke-miterlimit="10"/>
<path d="M347.557 55.7276C348.448 55.8284 349.346 55.9508 350.245 56.0228C356.132 56.5053 360.876 60.2856 362.479 65.9454C362.932 67.5367 363.011 69.2289 363.298 70.8634C363.514 72.2892 363.902 72.1667 363.902 72.1667C364.197 72.1667 364.305 70.921 364.305 70.921C364.427 70.2946 364.405 69.6465 364.477 69.0128C365.196 62.9859 368.043 58.5575 373.994 56.5989C375.468 56.1164 377.459 56.0948 378.997 55.7996C379.012 55.7996 379.026 55.7924 379.04 55.7924C380.011 55.634 379.824 54.9715 378.976 54.9931C378.968 54.9931 378.968 54.9931 378.961 54.9931C370.602 54.5827 364.973 49.4198 364.24 41.0382C364.24 41.0382 364.132 39.418 363.672 39.418C363.672 39.418 363.169 39.2884 363.083 41.103C362.587 48.5917 358.08 53.6178 350.683 54.8419C349.641 55.0147 348.592 55.1155 347.549 55.2451C347.549 55.2451 346.859 55.3027 346.859 55.49C346.867 55.4972 346.838 55.67 347.557 55.7276Z" fill="black" stroke="black" stroke-width="1.35517" stroke-miterlimit="10"/>
<path d="M220.996 315.832H103.607V343.483H220.996V315.832Z" fill="black"/>
<path d="M220.996 315.837H103.794C103.737 315.837 103.708 315.786 103.751 315.765L122.986 306.26H240.195C240.252 306.26 240.281 306.303 240.231 306.332L220.996 315.837Z" stroke="black" stroke-width="1.35517" stroke-miterlimit="10"/>
<path d="M220.994 343.495L240.373 333.918" stroke="black" stroke-width="1.35517" stroke-miterlimit="10"/>
<path d="M239.994 278.553H122.605V306.203H239.994V278.553Z" fill="black"/>
<path d="M239.993 278.561H122.785C122.727 278.561 122.698 278.511 122.741 278.489L141.977 268.984H259.185C259.243 268.984 259.271 269.028 259.221 269.056L239.993 278.561Z" stroke="black" stroke-width="1.35517" stroke-miterlimit="10"/>
<path d="M259.177 241.275H141.789V268.926H259.177V241.275Z" fill="black"/>
<path d="M259.179 241.282H141.97C141.913 241.282 141.884 241.232 141.927 241.21L161.162 231.705H278.371C278.428 231.705 278.457 231.748 278.407 231.777L259.179 241.282Z" stroke="black" stroke-width="1.35517" stroke-miterlimit="10"/>
<path d="M430.37 300.27C438.73 305.094 450.367 308.442 461.444 308.442C461.444 308.442 423.29 345.591 423.009 345.591C373.901 345.591 346.988 285.235 346.988 285.235C324.626 235.816 278.846 231.633 278.846 231.633" stroke="black" stroke-width="1.35517" stroke-miterlimit="10"/>
<path d="M314.828 194.477C314.828 194.477 360.616 198.66 382.971 248.078C382.971 248.078 398.217 279.416 425.1 296.928" stroke="black" stroke-width="1.35517" stroke-miterlimit="10"/>
<path d="M278.645 315.795V231.727" stroke="black" stroke-width="1.35517" stroke-miterlimit="10"/>
<path d="M278.644 315.326L240.375 333.918" stroke="black" stroke-width="1.35517" stroke-miterlimit="10"/>
<path d="M71.9528 134.72L49.5117 134.353C49.5117 134.353 50.3168 123.365 58.0655 119.908" fill="#F3F4F5"/>
<path d="M71.9528 134.72L49.5117 134.353C49.5117 134.353 50.3168 123.365 58.0655 119.908" stroke="black" stroke-width="1.35517" stroke-miterlimit="10"/>
<path d="M71.7421 149.458L59.9824 149.091C59.9824 149.091 60.7875 138.103 68.5362 134.646" fill="#F3F4F5"/>
<path d="M71.7421 149.458L59.9824 149.091C59.9824 149.091 60.7875 138.103 68.5362 134.646" stroke="black" stroke-width="1.35517" stroke-miterlimit="10"/>
<path d="M161.672 207.655H86.5137C78.6859 207.655 72.3389 201.297 72.3389 193.456V136.678C72.3389 128.837 78.6859 122.479 86.5137 122.479H161.801C161.801 122.479 161.507 203.933 161.787 207.533C161.794 207.598 161.737 207.655 161.672 207.655Z" fill="#F3F4F5" stroke="black" stroke-width="1.35517" stroke-miterlimit="10"/>
<path d="M105.276 110.187L105.168 102.173C105.168 94.3454 101.553 89.2906 97.4268 89.0817L86.0481 88.6929L129.636 137.542C133.403 141.769 136.76 148.235 132.62 152.095C128.551 155.89 122.226 155.81 118.258 151.915L90.0662 124.221C87.7445 121.938 84.6393 120.628 81.3903 120.563L64.0527 120.196C55.8798 120.023 48.1024 116.624 42.4238 110.741L35.7173 103.8C31.1601 99.0835 24.9496 96.34 18.4013 96.16C-7.05159 96.16 -3.18442 57.1179 15.713 57.1179L17.8478 57.1035H34.6391L95.8598 58.1188C96.0754 58.126 96.2911 58.1332 96.5067 58.1404C101.833 58.4428 105.636 61.8488 108.964 66.4788L121.996 85.0638C124.267 88.3401 124.885 92.4877 124.885 96.8081L125.453 122.421" fill="#F3F4F5"/>
<path d="M105.276 110.187L105.168 102.173C105.168 94.3454 101.553 89.2906 97.4268 89.0817L86.0481 88.6929L129.636 137.542C133.403 141.769 136.76 148.235 132.62 152.095C128.551 155.89 122.226 155.81 118.258 151.915L90.0662 124.221C87.7445 121.938 84.6393 120.628 81.3903 120.563L64.0527 120.196C55.8798 120.023 48.1024 116.624 42.4238 110.741L35.7173 103.8C31.1601 99.0835 24.9496 96.34 18.4013 96.16C-7.05159 96.16 -3.18442 57.1179 15.713 57.1179L17.8478 57.1035H34.6391L95.8598 58.1188C96.0754 58.126 96.2911 58.1332 96.5067 58.1404C101.833 58.4428 105.636 61.8488 108.964 66.4788L121.996 85.0638C124.267 88.3401 124.885 92.4877 124.885 96.8081L125.453 122.421" stroke="black" stroke-width="1.35517" stroke-miterlimit="10"/>
<path d="M161.765 174.143H72.3604V191.568H161.765V174.143Z" fill="black"/>
<path d="M161.682 231.603V81.9077L278.603 37.5371V231.603" stroke="black" stroke-width="1.35517" stroke-miterlimit="10"/>
<path d="M314.49 158.33V194.362C314.49 194.362 278.787 232.382 278.787 231.475V37.445L314.382 0.440724C314.418 0.39752 314.49 0.426322 314.49 0.483928V96.2386" stroke="black" stroke-width="1.35517" stroke-miterlimit="10"/>
<path d="M388.693 203.52C407.073 203.52 421.973 188.594 421.973 170.181C421.973 151.768 407.073 136.842 388.693 136.842C370.312 136.842 355.412 151.768 355.412 170.181C355.412 188.594 370.312 203.52 388.693 203.52Z" fill="#F3F4F5" stroke="black" stroke-width="1.35517" stroke-miterlimit="10"/>
<path d="M386.838 136.842H396.075C414.454 136.842 429.355 151.769 429.355 170.181C429.355 188.593 414.454 203.52 396.075 203.52H387.765" stroke="black" stroke-width="1.35517" stroke-miterlimit="10"/>
<path d="M388.694 194.225C401.95 194.225 412.695 183.46 412.695 170.182C412.695 156.903 401.95 146.139 388.694 146.139C375.439 146.139 364.693 156.903 364.693 170.182C364.693 183.46 375.439 194.225 388.694 194.225Z" fill="#F3F4F5" stroke="black" stroke-width="1.35517" stroke-miterlimit="10"/>
<path d="M403.55 306.211C421.931 306.211 436.831 291.285 436.831 272.872C436.831 254.46 421.931 239.533 403.55 239.533C385.17 239.533 370.27 254.46 370.27 272.872C370.27 291.285 385.17 306.211 403.55 306.211Z" fill="#F3F4F5" stroke="black" stroke-width="1.35517" stroke-miterlimit="10"/>
<path d="M401.695 239.541H410.932C429.312 239.541 444.213 254.468 444.213 272.88C444.213 291.292 429.312 306.219 410.932 306.219H402.623" stroke="black" stroke-width="1.35517" stroke-miterlimit="10"/>
<path d="M403.552 296.916C416.807 296.916 427.553 286.152 427.553 272.873C427.553 259.595 416.807 248.83 403.552 248.83C390.296 248.83 379.551 259.595 379.551 272.873C379.551 286.152 390.296 296.916 403.552 296.916Z" fill="#F3F4F5" stroke="black" stroke-width="1.35517" stroke-miterlimit="10"/>
<path d="M296.901 168.893C295.097 168.893 293.631 167.424 293.631 165.617V88.872C293.631 87.0646 295.097 85.5957 296.901 85.5957C298.706 85.5957 300.172 87.0646 300.172 88.872V165.617C300.172 167.424 298.706 168.893 296.901 168.893Z" fill="black"/>
<path d="M410.185 344.165L278.586 315.398" stroke="black" stroke-width="1.35517" stroke-miterlimit="10"/>
<path d="M294.631 93.8262C313.011 93.8262 327.912 108.753 327.912 127.165C327.912 145.577 313.011 160.505 294.631 160.505" fill="#F3F4F5"/>
<path d="M294.631 93.8262C313.011 93.8262 327.912 108.753 327.912 127.165C327.912 145.577 313.011 160.505 294.631 160.505" stroke="black" stroke-width="1.35517" stroke-miterlimit="10"/>
<path d="M294.407 93.8262H302.005C320.385 93.8262 335.285 108.753 335.285 127.165C335.285 145.577 320.385 160.505 302.005 160.505H293.695" stroke="black" stroke-width="1.35517" stroke-miterlimit="10"/>
<path d="M294.631 103.123C307.886 103.123 318.632 113.888 318.632 127.166C318.632 140.444 307.886 151.209 294.631 151.209" fill="#F3F4F5"/>
<path d="M294.631 103.123C307.886 103.123 318.632 113.888 318.632 127.166C318.632 140.444 307.886 151.209 294.631 151.209" stroke="black" stroke-width="1.35517" stroke-miterlimit="10"/>
<path d="M379.723 172.146C380.219 173.774 381.254 175.812 383.36 177.23C385.826 178.886 387.946 178.605 389.06 176.942C391.59 173.162 382.634 168.121 385.524 163.808C387.062 161.511 390.045 161.453 392.69 163.232C394.89 164.708 395.53 166.343 395.932 168.085L394.775 168.344C394.286 166.623 393.797 165.435 391.921 164.168C389.873 162.785 387.817 162.922 386.731 164.542C384.438 167.963 393.445 172.938 390.289 177.648C388.665 180.074 385.423 180.067 382.627 178.181C380.363 176.654 379.098 174.357 378.58 172.55L379.723 172.146ZM394.415 159.502L395.393 160.157L392.762 164.082L391.785 163.426L394.415 159.502ZM383.281 178.231L380.622 182.199L379.644 181.543L382.303 177.576L383.281 178.231Z" fill="black" stroke="black" stroke-width="1.35517" stroke-miterlimit="10"/>
<path d="M287.486 124.963L288.514 123.047L290.368 123.076C291.166 117.711 294.451 114.277 299.404 114.349C302.257 114.392 304.443 115.767 305.916 118.439L304.011 119.447C303.077 117.366 301.546 116.307 299.375 116.279C295.795 116.228 293.351 118.676 292.604 123.112L301.481 123.242L300.453 125.157L292.403 125.042L292.359 128.145L301.409 128.275L300.381 130.19L292.503 130.075C293.129 134.532 295.501 137.045 299.08 137.096C301.244 137.125 302.811 136.116 303.803 134.064L305.679 135.123C304.126 137.751 301.905 139.069 299.052 139.026C294.099 138.954 290.915 135.425 290.268 130.039L287.414 129.996L288.442 128.08L290.16 128.102L290.203 124.999L287.486 124.963Z" fill="black"/>
<path d="M293.637 99.5215H281.82V145.044H293.637V99.5215Z" fill="#F3F4F5"/>
<path d="M314.377 0.439453L278.681 37.4438L162.062 81.5911C161.875 81.6631 161.724 81.4255 161.868 81.2887L194.437 50.1026L314.398 0.439453" fill="black"/>
<path d="M399.956 267.235L401.702 266.407L402.594 268.3C403.643 267.177 404.671 266.392 405.663 265.924C409.422 264.146 412.743 265.262 414.317 268.603C415.568 271.253 414.885 273.931 412.707 276.178L411.176 274.875C412.901 272.844 413.44 271.26 412.578 269.424C411.557 267.256 409.307 266.551 406.547 267.861C405.677 268.272 404.649 269.056 403.478 270.158L405.807 275.098L404.06 275.926L401.99 271.526C401.278 272.124 400.538 272.585 399.79 272.938C398.827 273.391 397.691 273.636 396.383 273.665C395.089 273.722 393.975 273.55 393.091 273.161C393.925 273.758 394.536 274.507 394.96 275.407C395.283 276.099 395.413 276.999 395.334 278.064C395.247 279.137 395.291 279.85 395.477 280.239C396.103 281.564 396.901 281.924 399.438 282.082L399.294 283.883C396.247 283.739 394.795 282.99 393.882 281.067C393.515 280.282 393.357 279.325 393.393 278.237C393.429 277.15 393.328 276.315 393.077 275.775C392.451 274.45 391.675 273.895 390.158 273.175L391.114 270.914C394.284 272.102 396.915 272.218 399.05 271.209C399.805 270.857 400.495 270.374 401.149 269.733L399.956 267.235Z" fill="black"/>
<path d="M33.5175 293.12L85.6309 258.506L31.5264 223.359L33.5175 293.12Z" stroke="black" stroke-width="1.35517" stroke-miterlimit="10"/>
<path d="M62.6073 292.284L114.714 257.677L60.6162 222.523L62.6073 292.284Z" stroke="black" stroke-width="1.35517" stroke-miterlimit="10"/>
<path d="M85.6318 258.505L61.4512 242.801L62.3425 273.973L85.6318 258.505Z" fill="black"/>
<path d="M223.24 183.77C242.577 183.77 258.253 168.067 258.253 148.696C258.253 129.324 242.577 113.621 223.24 113.621C203.902 113.621 188.227 129.324 188.227 148.696C188.227 168.067 203.902 183.77 223.24 183.77Z" stroke="black" stroke-width="1.35517" stroke-miterlimit="10"/>
<path d="M243.336 187.485C248.6 187.485 252.867 183.21 252.867 177.937C252.867 172.664 248.6 168.389 243.336 168.389C238.072 168.389 233.805 172.664 233.805 177.937C233.805 183.21 238.072 187.485 243.336 187.485Z" fill="black"/>
<path d="M204.119 148.094L190.777 134.729L177.435 148.094L190.777 161.459L204.119 148.094Z" fill="black"/>
<path d="M253.947 112.994L256.031 135.539L234.582 126.913" fill="black"/>
</g>
<defs>
<clipPath id="clip0_155_35029">
<rect width="462.487" height="346" fill="white"/>
</clipPath>
</defs>
</svg>
