<svg width="463" height="346" viewBox="0 0 463 346" fill="none" xmlns="http://www.w3.org/2000/svg">
<g clip-path="url(#clip0_155_35088)">
<path d="M391.182 88.448C405.615 89.9529 414.485 81.3697 414.485 81.3697C431.715 63.2816 440.262 67.782 440.262 67.782C440.405 67.7964 437.969 89.8449 437.969 89.8449C437.969 89.8449 428.322 88.0951 412.192 103.433C412.192 103.433 403.322 112.016 388.889 110.511C388.889 110.518 390.966 88.6064 391.182 88.448Z" fill="#FEE2BE" stroke="black" stroke-width="1.35517" stroke-miterlimit="10"/>
<path d="M347.557 55.7276C348.448 55.8284 349.346 55.9508 350.245 56.0228C356.132 56.5053 360.876 60.2856 362.479 65.9454C362.932 67.5367 363.011 69.2289 363.298 70.8634C363.514 72.2892 363.902 72.1667 363.902 72.1667C364.197 72.1667 364.305 70.921 364.305 70.921C364.427 70.2946 364.405 69.6465 364.477 69.0128C365.196 62.9859 368.043 58.5575 373.994 56.5989C375.468 56.1164 377.459 56.0948 378.997 55.7996C379.012 55.7996 379.026 55.7924 379.04 55.7924C380.011 55.634 379.824 54.9715 378.976 54.9931C378.968 54.9931 378.968 54.9931 378.961 54.9931C370.602 54.5827 364.973 49.4198 364.24 41.0382C364.24 41.0382 364.132 39.418 363.672 39.418C363.672 39.418 363.169 39.2884 363.083 41.103C362.587 48.5917 358.08 53.6178 350.683 54.8419C349.641 55.0147 348.592 55.1155 347.549 55.2451C347.549 55.2451 346.859 55.3027 346.859 55.49C346.867 55.4972 346.838 55.67 347.557 55.7276Z" fill="black" stroke="black" stroke-width="1.35517" stroke-miterlimit="10"/>
<path d="M220.998 315.832H103.609V343.483H220.998V315.832Z" fill="black"/>
<path d="M220.996 315.837H103.794C103.737 315.837 103.708 315.786 103.751 315.765L122.986 306.26H240.195C240.252 306.26 240.281 306.303 240.231 306.332L220.996 315.837Z" stroke="black" stroke-width="1.35517" stroke-miterlimit="10"/>
<path d="M220.996 343.495L240.375 333.918" stroke="black" stroke-width="1.35517" stroke-miterlimit="10"/>
<path d="M239.996 278.553H122.607V306.203H239.996V278.553Z" fill="black"/>
<path d="M239.995 278.561H122.787C122.729 278.561 122.7 278.511 122.743 278.489L141.979 268.984H259.187C259.245 268.984 259.273 269.028 259.223 269.056L239.995 278.561Z" stroke="black" stroke-width="1.35517" stroke-miterlimit="10"/>
<path d="M259.179 241.275H141.791V268.926H259.179V241.275Z" fill="black"/>
<path d="M259.181 241.282H141.972C141.915 241.282 141.886 241.232 141.929 241.21L161.164 231.705H278.373C278.43 231.705 278.459 231.748 278.409 231.777L259.181 241.282Z" stroke="black" stroke-width="1.35517" stroke-miterlimit="10"/>
<path d="M430.37 300.27C438.73 305.094 450.367 308.442 461.444 308.442C461.444 308.442 423.29 345.591 423.009 345.591C373.901 345.591 346.988 285.235 346.988 285.235C324.626 235.816 278.846 231.633 278.846 231.633" stroke="black" stroke-width="1.35517" stroke-miterlimit="10"/>
<path d="M314.83 194.477C314.83 194.477 360.618 198.66 382.973 248.078C382.973 248.078 398.219 279.416 425.102 296.928" stroke="black" stroke-width="1.35517" stroke-miterlimit="10"/>
<path d="M278.646 315.795V231.727" stroke="black" stroke-width="1.35517" stroke-miterlimit="10"/>
<path d="M278.644 315.326L240.375 333.918" stroke="black" stroke-width="1.35517" stroke-miterlimit="10"/>
<path d="M71.9528 134.72L49.5117 134.353C49.5117 134.353 50.3168 123.365 58.0655 119.908" fill="#FEE2BE"/>
<path d="M71.9528 134.72L49.5117 134.353C49.5117 134.353 50.3168 123.365 58.0655 119.908" stroke="black" stroke-width="1.35517" stroke-miterlimit="10"/>
<path d="M71.7421 149.458L59.9824 149.091C59.9824 149.091 60.7875 138.103 68.5362 134.646" fill="#FEE2BE"/>
<path d="M71.7421 149.458L59.9824 149.091C59.9824 149.091 60.7875 138.103 68.5362 134.646" stroke="black" stroke-width="1.35517" stroke-miterlimit="10"/>
<path d="M161.673 207.655H86.5147C78.6869 207.655 72.3398 201.297 72.3398 193.456V136.678C72.3398 128.837 78.6869 122.479 86.5147 122.479H161.802C161.802 122.479 161.508 203.933 161.788 207.533C161.795 207.598 161.738 207.655 161.673 207.655Z" fill="#FEE2BE" stroke="black" stroke-width="1.35517" stroke-miterlimit="10"/>
<path d="M105.277 110.187L105.169 102.173C105.169 94.3454 101.554 89.2906 97.4278 89.0817L86.0491 88.6929L129.637 137.542C133.404 141.769 136.761 148.235 132.62 152.095C128.552 155.89 122.227 155.81 118.259 151.915L90.0672 124.221C87.7455 121.938 84.6402 120.628 81.3912 120.563L64.0536 120.196C55.8808 120.023 48.1033 116.624 42.4248 110.741L35.7183 103.8C31.1611 99.0835 24.9506 96.34 18.4023 96.16C-7.05061 96.16 -3.18344 57.1179 15.714 57.1179L17.8488 57.1035H34.6401L95.8608 58.1188C96.0764 58.126 96.2921 58.1332 96.5077 58.1404C101.834 58.4428 105.637 61.8488 108.965 66.4788L121.997 85.0638C124.268 88.3401 124.886 92.4877 124.886 96.8081L125.454 122.421" fill="#FEE2BE"/>
<path d="M105.277 110.187L105.169 102.173C105.169 94.3454 101.554 89.2906 97.4278 89.0817L86.0491 88.6929L129.637 137.542C133.404 141.769 136.761 148.235 132.621 152.095C128.552 155.89 122.227 155.81 118.259 151.915L90.0672 124.221C87.7455 121.938 84.6402 120.628 81.3912 120.563L64.0536 120.196C55.8808 120.023 48.1033 116.624 42.4248 110.741L35.7183 103.8C31.1611 99.0835 24.9506 96.34 18.4023 96.16C-7.05061 96.16 -3.18344 57.1179 15.714 57.1179L17.8488 57.1035H34.6401L95.8608 58.1188C96.0764 58.126 96.2921 58.1332 96.5077 58.1404C101.834 58.4428 105.637 61.8488 108.965 66.4788L121.997 85.0638C124.268 88.3401 124.886 92.4877 124.886 96.8081L125.454 122.421" stroke="black" stroke-width="1.35517" stroke-miterlimit="10"/>
<path d="M161.766 174.143H72.3613V191.568H161.766V174.143Z" fill="black"/>
<path d="M161.682 231.603V81.9077L278.603 37.5371V231.603" stroke="black" stroke-width="1.35517" stroke-miterlimit="10"/>
<path d="M314.492 158.33V194.362C314.492 194.362 278.789 232.382 278.789 231.475V37.445L314.384 0.440724C314.42 0.39752 314.492 0.426322 314.492 0.483928V96.2386" stroke="black" stroke-width="1.35517" stroke-miterlimit="10"/>
<path d="M388.695 203.52C407.075 203.52 421.975 188.594 421.975 170.181C421.975 151.768 407.075 136.842 388.695 136.842C370.314 136.842 355.414 151.768 355.414 170.181C355.414 188.594 370.314 203.52 388.695 203.52Z" fill="#FEE2BE" stroke="black" stroke-width="1.35517" stroke-miterlimit="10"/>
<path d="M386.84 136.842H396.077C414.456 136.842 429.357 151.769 429.357 170.181C429.357 188.593 414.456 203.52 396.077 203.52H387.767" stroke="black" stroke-width="1.35517" stroke-miterlimit="10"/>
<path d="M388.696 194.225C401.952 194.225 412.697 183.46 412.697 170.182C412.697 156.903 401.952 146.139 388.696 146.139C375.441 146.139 364.695 156.903 364.695 170.182C364.695 183.46 375.441 194.225 388.696 194.225Z" fill="#FEE2BE" stroke="black" stroke-width="1.35517" stroke-miterlimit="10"/>
<path d="M403.552 306.211C421.933 306.211 436.833 291.285 436.833 272.872C436.833 254.46 421.933 239.533 403.552 239.533C385.172 239.533 370.271 254.46 370.271 272.872C370.271 291.285 385.172 306.211 403.552 306.211Z" fill="#FEE2BE" stroke="black" stroke-width="1.35517" stroke-miterlimit="10"/>
<path d="M401.697 239.541H410.934C429.314 239.541 444.215 254.468 444.215 272.88C444.215 291.292 429.314 306.219 410.934 306.219H402.625" stroke="black" stroke-width="1.35517" stroke-miterlimit="10"/>
<path d="M403.554 296.916C416.809 296.916 427.555 286.152 427.555 272.873C427.555 259.595 416.809 248.83 403.554 248.83C390.298 248.83 379.553 259.595 379.553 272.873C379.553 286.152 390.298 296.916 403.554 296.916Z" fill="#FEE2BE" stroke="black" stroke-width="1.35517" stroke-miterlimit="10"/>
<path d="M296.901 168.893C295.097 168.893 293.631 167.424 293.631 165.617V88.872C293.631 87.0646 295.097 85.5957 296.901 85.5957C298.706 85.5957 300.172 87.0646 300.172 88.872V165.617C300.172 167.424 298.706 168.893 296.901 168.893Z" fill="black"/>
<path d="M410.187 344.165L278.588 315.398" stroke="black" stroke-width="1.35517" stroke-miterlimit="10"/>
<path d="M294.633 93.8262C313.013 93.8262 327.913 108.753 327.913 127.165C327.913 145.577 313.013 160.505 294.633 160.505" fill="#FEE2BE"/>
<path d="M294.633 93.8262C313.013 93.8262 327.913 108.753 327.913 127.165C327.913 145.577 313.013 160.505 294.633 160.505" stroke="black" stroke-width="1.35517" stroke-miterlimit="10"/>
<path d="M294.409 93.8262H302.007C320.386 93.8262 335.287 108.753 335.287 127.165C335.287 145.577 320.386 160.505 302.007 160.505H293.697" stroke="black" stroke-width="1.35517" stroke-miterlimit="10"/>
<path d="M294.633 103.123C307.888 103.123 318.634 113.888 318.634 127.166C318.634 140.444 307.888 151.209 294.633 151.209" fill="#FEE2BE"/>
<path d="M294.633 103.123C307.888 103.123 318.634 113.888 318.634 127.166C318.634 140.444 307.888 151.209 294.633 151.209" stroke="black" stroke-width="1.35517" stroke-miterlimit="10"/>
<path d="M379.723 172.146C380.219 173.774 381.254 175.812 383.36 177.23C385.826 178.886 387.946 178.605 389.06 176.942C391.59 173.162 382.634 168.121 385.524 163.808C387.062 161.511 390.045 161.453 392.69 163.232C394.89 164.708 395.53 166.343 395.932 168.085L394.775 168.344C394.286 166.623 393.797 165.435 391.921 164.168C389.873 162.785 387.817 162.922 386.731 164.542C384.438 167.963 393.445 172.938 390.289 177.648C388.665 180.074 385.423 180.067 382.627 178.181C380.363 176.654 379.098 174.357 378.58 172.55L379.723 172.146ZM394.415 159.502L395.393 160.157L392.762 164.082L391.785 163.426L394.415 159.502ZM383.281 178.231L380.622 182.199L379.644 181.543L382.303 177.576L383.281 178.231Z" fill="black" stroke="black" stroke-width="1.35517" stroke-miterlimit="10"/>
<path d="M287.488 124.963L288.516 123.047L290.37 123.076C291.168 117.711 294.453 114.277 299.406 114.349C302.259 114.392 304.445 115.767 305.918 118.439L304.013 119.447C303.079 117.366 301.548 116.307 299.377 116.279C295.797 116.228 293.353 118.676 292.606 123.112L301.483 123.242L300.455 125.157L292.405 125.042L292.361 128.145L301.411 128.275L300.383 130.19L292.505 130.075C293.131 134.532 295.503 137.045 299.082 137.096C301.246 137.125 302.813 136.116 303.805 134.064L305.681 135.123C304.128 137.751 301.907 139.069 299.054 139.026C294.101 138.954 290.917 135.425 290.27 130.039L287.416 129.996L288.444 128.08L290.162 128.102L290.205 124.999L287.488 124.963Z" fill="black"/>
<path d="M293.639 99.5215H281.822V145.044H293.639V99.5215Z" fill="#FEE2BE"/>
<path d="M314.377 0.439453L278.681 37.4438L162.062 81.5911C161.875 81.6631 161.724 81.4255 161.868 81.2887L194.437 50.1026L314.398 0.439453" fill="black"/>
<path d="M399.957 267.235L401.704 266.407L402.596 268.3C403.645 267.177 404.673 266.392 405.665 265.924C409.424 264.146 412.745 265.262 414.319 268.603C415.57 271.253 414.887 273.931 412.709 276.178L411.178 274.875C412.903 272.844 413.442 271.26 412.58 269.424C411.559 267.256 409.309 266.551 406.549 267.861C405.679 268.272 404.651 269.056 403.48 270.158L405.809 275.098L404.062 275.926L401.992 271.526C401.28 272.124 400.54 272.585 399.792 272.938C398.829 273.391 397.693 273.636 396.385 273.665C395.091 273.722 393.977 273.55 393.093 273.161C393.927 273.758 394.538 274.507 394.962 275.407C395.285 276.099 395.415 276.999 395.336 278.064C395.249 279.137 395.292 279.85 395.479 280.239C396.105 281.564 396.903 281.924 399.44 282.082L399.296 283.883C396.248 283.739 394.796 282.99 393.884 281.067C393.517 280.282 393.359 279.325 393.395 278.237C393.431 277.15 393.33 276.315 393.079 275.775C392.453 274.45 391.677 273.895 390.16 273.175L391.116 270.914C394.286 272.102 396.917 272.218 399.052 271.209C399.807 270.857 400.497 270.374 401.151 269.733L399.957 267.235Z" fill="black"/>
<path d="M33.5184 293.12L85.6318 258.506L31.5273 223.359L33.5184 293.12Z" stroke="black" stroke-width="1.35517" stroke-miterlimit="10"/>
<path d="M62.6083 292.284L114.714 257.677L60.6172 222.523L62.6083 292.284Z" stroke="black" stroke-width="1.35517" stroke-miterlimit="10"/>
<path d="M85.6318 258.505L61.4512 242.801L62.3425 273.973L85.6318 258.505Z" fill="black"/>
<path d="M223.24 183.77C242.577 183.77 258.253 168.067 258.253 148.696C258.253 129.324 242.577 113.621 223.24 113.621C203.902 113.621 188.227 129.324 188.227 148.696C188.227 168.067 203.902 183.77 223.24 183.77Z" stroke="black" stroke-width="1.35517" stroke-miterlimit="10"/>
<path d="M243.336 187.485C248.6 187.485 252.867 183.21 252.867 177.937C252.867 172.664 248.6 168.389 243.336 168.389C238.072 168.389 233.805 172.664 233.805 177.937C233.805 183.21 238.072 187.485 243.336 187.485Z" fill="black"/>
<path d="M204.119 148.094L190.777 134.729L177.435 148.094L190.777 161.459L204.119 148.094Z" fill="black"/>
<path d="M253.947 112.994L256.031 135.539L234.582 126.913" fill="black"/>
</g>
<defs>
<clipPath id="clip0_155_35088">
<rect width="462.487" height="346" fill="white"/>
</clipPath>
</defs>
</svg>
